<?xml version="1.0" encoding="utf-8"?>
<!-- Generator: Adobe Illustrator 19.0.0, SVG Export Plug-In . SVG Version: 6.00 Build 0)  -->
<svg version="1.1" id="Layer_1" xmlns="http://www.w3.org/2000/svg" xmlns:xlink="http://www.w3.org/1999/xlink" x="0px" y="0px"
	 viewBox="0 0 960 560" style="enable-background:new 0 0 960 560;" xml:space="preserve">
<g>
	<path d="M714.7,97c-1.5-1.6-2.9-3.4-4.6-4.8c-1.8-1.4-4.3-2.1-5.7-3.8c-19-22.2-45.5-18.6-70.4-20.1c-8.4-0.5-17,1.7-25.5,2.7
		c-0.3,1.1-0.7,2.3-1,3.4c3.3,1.8,6.5,4.2,10.1,5.2c3.9,1.1,8.2,0.6,12.1,1.6c1.8,0.4,3.1,2.7,4.7,4.2c-1.7,1.3-3.3,3.6-5,3.6
		c-3.7,0.2-7.5-1-11.2-1.3c-5.4-0.4-11.1-1.9-16-0.4c-12.8,3.9-25.3,9.1-39.8,14.5c7.3,4.6,12,8.9,19.5,7.5c5-0.9,10.2-1.1,15.2-0.3
		c2.5,0.4,4.7,3.6,7,5.5c-2.6,1.6-5,4-7.8,4.5c-3.1,0.6-6.8,0.2-9.7-0.9c-7.4-2.9-13.5-0.9-20.4,2.1c-12.8,5.6-26,10.2-39.2,14.8
		c-4.3,1.5-6.9,3.4-9.5,7.6c-2.8,4.5-8.1,8.8-13.2,10.4c-25.1,7.7-50.4,14.8-75.7,21.6c-40.6,10.9-81.9,19.9-120,38.5
		c-17.3,8.4-33.6,18.4-45.6,33.9c-4,5.2-7.1,11.2-10,17.1c-0.7,1.4,1.3,4,1.7,6.1c0.7,4.9,1.7,9.8,1.4,14.6c-0.1,1.6-4.5,4.4-6.2,4
		c-2.2-0.6-4.6-3.7-5.3-6.1c-0.8-2.8-0.3-6.1,0.2-9.1c0.8-5.4-2.2-6.9-6.2-5.3c-4.3,1.8-8.8,4.3-12,7.7
		c-11.9,12.4-18.7,27.7-23.2,44.1c-1.2,4.4-2.9,8.7-4.1,13.1c-0.5,1.8-0.9,4.8,0.1,5.7c8.3,7.5,3.1,15,0.3,22.3
		c-5.9,15.6-12.3,31.1-18.1,46.8c-1.3,3.6-0.9,7.7-1.3,11.6c0.9,0.5,1.8,1.1,2.7,1.6c3.7-3.5,7.7-6.6,10.9-10.5
		c5.8-7.1,11.4-14.3,16.4-21.9c3.5-5.3,6.6-11.2,8.7-17.2c2.8-7.8,8.6-9.7,16-3.7c7.3-9.4,15.7-18,18.1-30.4
		c1.6-7.9,0.4-10-7.9-10.7c-6.1-0.5-11.6-1.6-14.7-7.5c5-6.8,11.3-8.5,18.4-3.1c7.1,5.4,13,4.4,20.4,1.1
		c31.6-14,64.9-19.7,99.3-17.5c9.3,0.6,18.5,3.5,27.7,5.4c2.5,0.5,5.4,1.9,7.3,1c13.9-6.3,28-12.4,38.1-24.6
		c0.4-0.5,0.6-1.3,1.6-3.4c-3.6,0.5-6.1,1-8.6,1.3c-17.6,2.5-35.2,5.9-53,7.2c-10.9,0.8-21.9-2-30.8-9.5c-10.5-8.8-11-23.6-1.6-33.9
		c12.1-13.2,27.7-18.1,44.7-18.5c21-0.5,40.9,4,55.1,21.2c3.4,4.2,5.2,10.3,6.1,15.8c0.9,5.5,1.8,7.6,8,6.2
		c25-5.6,50.2-9.5,75.9-8.1c24.2,1.4,46.8,7.6,66.1,23c10.1,8.1,12.3,16,7.8,28c-1.2,3.3-1.4,7.3,3.4,5.8
		c9.1-2.8,18.5-5.9,26.6-10.7c7.8-4.7,9.5-12.3,4.6-20c-6.4-10-14.2-19.1-22.1-28.1c-1.8-2.1-6-2.1-9.2-2.8c-4.2-1-8.8-1-12.6-2.8
		c-2.5-1.2-3.8-4.7-5.7-7.2c3.3-1.3,6.7-3.8,9.9-3.6c3.5,0.2,6.8,3.3,10.3,4.6c6.1,2.2,12.2,5,18.5,5.6c18,1.9,36.3,1.9,54.1,4.8
		c8.5,1.4,17,6.7,24,12.1c7.9,6.1,8.3,17.5,2.3,25.5c-4.5,6.1-10.1,11.5-14.4,17.7c-2.4,3.4-4.1,7.9-4.3,12
		c-0.4,7.6,1.1,15.3,0.7,22.9c-0.4,8.4-4.8,10.1-11.7,5.2c-9.5-6.7-11.1-17.5-3.9-26.5c11.7-14.5,9.8-22.6-7.4-31.5
		c-1.6-0.8-3-2.1-5.3-3.8c10.3-0.7,18,4.6,26.6,17.7c9.2-4.8,15-12.3,17.4-22.3c1.9-7.9-0.8-14.9-9.2-19c-7.8-3.9-16.6-7-25.2-8.2
		c-13.4-1.8-27-1.7-40.5-2.3c-1.4-0.1-2.9,0.6-6.4,1.3c4.2,5.7,8.2,10.3,11.3,15.4c3.7,6,7.7,12.2,9.8,18.8
		c2.4,7.8-2.4,14.9-8.7,17.9c-11.1,5.2-23.3,8.3-35,12.3c-3,1-6.1,2-9,3.5c-18,9.3-35.8,19.2-54.1,28c-3.9,1.9-11.5,2-13.8-0.5
		c-4.1-4.4,0.9-9.3,4.1-13.2c8.4-10.3,20.4-14.1,32.6-17c8.2-1.9,16.6-3.4,24.9-4.2c6.9-0.7,11.6-3.3,13.6-10.1
		c2.1-7.1,1.3-13.5-4.2-19c-12.5-12.7-28.2-19.1-45.1-22.7c-28.6-6.1-56.9-2.8-85.1,3.1c-3.7,0.8-7.8,1-11.2,2.5
		c-4.9,2.1-10.7,4.2-14,8.1c-9.9,12-22.9,19.4-36.3,26.2c-5.6,2.9-6.4,5.2-2.1,10.3c6.5,7.6,4.2,17.3-5.6,26
		c-2.1,1.9-4.1,4.1-6.6,5.2c-16.5,7.1-18.4,23.1-24.1,37.4c-5.9,14.8-13.7,28.8-20.9,43c-0.9,1.8-4.1,3.9-5.8,3.6
		c-1.8-0.4-3.8-3.2-4.4-5.4c-5.3-18.5,0.4-34.2,12.8-47.9c5.4-6.1,11.4-11.6,17.2-17.3c4.2-4.2,6.2-18.6,2.4-22.9
		c-1-1.1-5.9-0.8-7.1,0.5c-10.5,12.4-21.1,24.9-30.5,38.1c-7.5,10.5-13.5,22.1-19.7,33.5c-1.4,2.6-1.6,6.4-1,9.4
		c3.7,19.5,4.2,39.1,0.3,58.6c-0.5,2.7-1.8,5.3-2.9,7.8c-4.7,11.2-8.2,12-15,1.9c-8.4-12.5-15-25.5-5.4-41.1
		c5.7-9.3,9.7-19.5,14.2-29.5c0.8-1.8,1.1-4.8,0.1-6.4c-5.3-9.5-10.6-19.1-16.8-28.1c-6.7-9.8-5.3-20.9,7-27.9
		c18.1-10.2,37.3-18.6,56.2-27.5c2.9-1.4,6.5-1.5,9.8-1.6c10.6-0.2,22-6.4,29.2-17.4c-9.6-1.7-18.3-4.2-27.2-4.8
		c-36.7-2.5-71.6,5.1-104.8,20.6c-2,0.9-4.1,4.3-4,6.4c0.7,12.6-6.7,21.5-13.1,31c-7.1,10.5-14.5,20.9-20.7,32
		c-2.1,3.9-1,9.6-1.2,14.5c-0.1,4.1,0.7,8.3,0,12.2c-0.5,2.4-3.1,4.5-4.8,6.7c-2.1-1.9-6.1-3.8-6.1-5.7c0.1-6.9,1.5-13.9,2.3-20.8
		c0.3-2.5,0.2-5.1,0.3-7.6c-2,1.2-4.4,2-5.9,3.6c-9.3,10.1-17.5,20.8-13.9,36c0.3,1.5,0.5,3.2,0,4.6c-1.4,3.4-3.1,6.7-4.7,10
		c-2.5-3.2-5.1-6.3-7.4-9.7c-0.7-1.1-0.6-2.7-0.9-4.1c-0.9,0.2-1.8,0.3-2.7,0.5c1.3,6.1,2,12.4,3.9,18.3c2.5,8,5.9,15.7,8.6,23.7
		c0.5,1.6,0.2,4.4-0.9,5.2c-1.2,0.9-4.1,0.8-5.4-0.1c-8.8-5.7-13.1-14.3-13.3-24.4c-0.5-23.3,2.2-46.3,9.3-68.6
		c1.3-4.2,2.1-7.5-0.8-12c-4.7-7.1-0.3-14.1,2.9-20.8c3.8-8,8.3-15.8,10.7-24.2c5.3-19.3,11.5-38,24.2-53.9
		c6.1-7.6,13.3-13.2,23.7-13.8c2.4-0.1,5.8-1.8,6.7-3.7c12.9-26.1,36.1-40.2,61-52c34.6-16.4,71.8-24.9,108.5-34.7
		c26.1-7,52.2-14,78.2-21.4c5.9-1.7,11.1-5.3,16.7-8.1c-0.1-0.9-0.3-1.8-0.4-2.7c-1.7-0.5-3.3-1.5-5-1.5c-3.3-0.1-6.7,0.8-9.9,0.4
		c-2.6-0.4-5.1-2.1-7.6-3.2c2.4-2.2,4.5-4.8,7.2-6.5c1.5-0.9,4.2-0.8,6-0.1c19.6,7,36.3-2.1,53.3-9.3c4.1-1.8,7.9-4.4,13.2-7.5
		c-7.7-5.4-13.9-10.3-22.8-9c-3.3,0.5-6.7,1.3-9.9,0.8c-2.5-0.4-4.8-2.6-7.2-4c2.2-1.7,4.2-4.2,6.7-5c2.5-0.8,5.8-0.6,8.2,0.4
		c9.1,3.9,17.5,1,25.9-2.2c8.8-3.4,17.7-6.6,26.4-10.3c2.4-1,4.2-3.4,6.3-5.2c-2.7-2-5.1-4.9-8.2-5.8c-3.2-1-7.1-0.1-10.6-0.4
		c-1.3-0.1-2.6-1.3-4.2-2.2c3.2-5.4,7.5-5.7,12.6-5.2c6.8,0.7,13.7,1.9,20.3,1c19.4-2.7,38.6-2.9,57.8,1.7
		c11.6,2.8,11.4,2.6,14.8-8.5c0.7-2.4,3.7-4.1,5.6-6.1c1.7,2,3.5,3.9,5,6c0.5,0.7,0.7,2.1,0.4,3c-5.9,16.5,7.4,21.3,17.3,27.5
		c4.6,2.9,10.5,3.9,15.9,5.4c5.4,1.5,10.2,0.7,13.2-4.7c0.5-0.9,1.2-1.8,2.1-2.2c4.4-2.2,10.3-6.9,13.5-1.5c3.4,5.6-4.2,6.8-7.8,8.8
		c-9.9,5.5-12.5,11.9-9.1,25.7c4.1-2.8,7.8-5.9,12-7.8c2.4-1.1,5.7-0.2,8.6-0.2c-0.6,2.7-0.4,6.1-2,7.9c-3,3.6-6.7,6.9-10.7,9.4
		c-4.2,2.7-5.7,6.1-3.7,10.3c3.7,7.9,2.6,14.8-1.2,22.6c-9.8,19.9-22.9,37.2-38.9,52.4c-3.4,3.2-7.7,6.2-12.2,7.6
		c-4.4,1.4-10.6,2.6-14.1,0.6c-6-3.5-10.7-11-7.3-17.7c7.1-13.9,1.8-26.7-0.5-40c-3.6-21.2,1.6-31.9,19.8-43.6
		c5.4-3.5,9.1-9.9,13.4-15c3-3.6,6-7.3,8.9-10.9c8.5,6.2,13.6,19.8,8.7,24c-4.6-4.3-1.6-13.5-10.3-16c-4.7,11.7-13.7,18.7-23.7,25.3
		c-10.6,7-15.6,18.5-13.2,30.4c3.1,15.5,8.2,30.3,2.4,46.4c-1.3,3.5,1.2,10,4.2,12.9c1.9,1.8,8.2,0.6,11.7-1
		c4.3-1.9,8.7-4.9,11.5-8.5c11.5-14.8,22.6-29.9,33.4-45.2c8.1-11.4,3.2-23.5,0.6-35.2c-1.1-4.8-3.8-9.5-3.9-14.2
		c-0.6-16.6-1-17.4-17.7-18.9C717.2,96.7,715.9,96.9,714.7,97z M388.9,284.3c17-3.6,36-7.4,54.8-11.8c7-1.7,9.6-8,6.7-15.3
		c-1.5-3.7-3.6-7.5-6.4-10.4c-21.1-22.5-65.2-24.5-88.4-4.3c-6.9,6.1-11.1,16.9-8.4,22.4c3.7,7.4,9.1,13,17.4,14.9
		C372,281.5,379.3,282.5,388.9,284.3z M313.4,405.5c18-25.1,35.6-49.6,53.8-74.9c-2.4,0-4.6-0.5-6.6,0.1
		c-22.3,6.2-42.9,16-61.3,30.1c-7.2,5.5-7.7,10.6-3,18.4C301.7,388,307.6,396.5,313.4,405.5z M313,425.3
		c-20.4,19.4-21.9,52.3-3.2,63.6C316.2,468.2,316.6,447.8,313,425.3z M409.3,326.3c0.2-7.4-5.6-13.8-10.7-11
		c-6.2,3.3-12.4,7.4-16.8,12.7c-1.9,2.2,0.8,8.3,1.4,12.6c0.1,0.8,0.2,1.5,0.3,2.3c1,8.9,1.4,9.1,9.4,4c1.1-0.7,2.3-1.1,3.3-1.9
		C402.1,339.8,408.9,335.3,409.3,326.3z M375.3,370.1c-0.8-0.4-1.6-0.9-2.4-1.3c-8.8,6.7-15.8,15.2-21,25.1
		c-4.1,7.7-8,15.5-5.6,24.6c0.5,1.7,1.9,3.2,3,4.8c1.4-1.1,3.4-2,4.3-3.5c4.1-7.3,8.4-14.5,11.7-22.2
		C369.1,388.7,372,379.3,375.3,370.1z M593.1,324.3c-16.9,1-33.8,2.5-47.5,14.1c-3.1,2.6-5.1,6.5-7.7,9.8c0.8,0.9,1.6,1.8,2.3,2.6
		C560,346.9,576.6,335.9,593.1,324.3z M694.1,324.4c-1-0.2-2-0.3-2.9-0.5c-2,2.7-4.2,5.3-5.9,8.1c-3.5,5.6-1.1,13.7,4.8,16
		c1.2,0.5,4.8-1.5,4.9-2.3C694.9,338.6,694.4,331.5,694.1,324.4z"/>
</g>
</svg>
